<mxfile host="app.diagrams.net" agent="Mozilla/5.0 (Windows NT 10.0; Win64; x64) AppleWebKit/537.36 (KHTML, like Gecko) Chrome/139.0.0.0 Safari/537.36" version="28.1.2">
  <diagram id="C5RBs43oDa-KdzZeNtuy" name="Page-1">
    <mxGraphModel dx="1226" dy="620" grid="1" gridSize="10" guides="1" tooltips="1" connect="1" arrows="1" fold="1" page="1" pageScale="1" pageWidth="827" pageHeight="1169" math="0" shadow="0">
      <root>
        <mxCell id="WIyWlLk6GJQsqaUBKTNV-0" />
        <mxCell id="WIyWlLk6GJQsqaUBKTNV-1" parent="WIyWlLk6GJQsqaUBKTNV-0" />
        <mxCell id="pgVZvfsafe47XiwOtJ4V-3" value="" style="whiteSpace=wrap;html=1;align=left;verticalAlign=top;" vertex="1" parent="WIyWlLk6GJQsqaUBKTNV-1">
          <mxGeometry x="300" y="70" width="200" height="290" as="geometry" />
        </mxCell>
        <mxCell id="pgVZvfsafe47XiwOtJ4V-0" value="Use Case Diagram" style="shape=umlFrame;whiteSpace=wrap;html=1;pointerEvents=0;width=120;height=30;" vertex="1" parent="WIyWlLk6GJQsqaUBKTNV-1">
          <mxGeometry x="220" y="30" width="300" height="350" as="geometry" />
        </mxCell>
        <mxCell id="pgVZvfsafe47XiwOtJ4V-9" style="rounded=0;orthogonalLoop=1;jettySize=auto;html=1;entryX=0;entryY=0.5;entryDx=0;entryDy=0;endArrow=none;endFill=0;exitX=0.5;exitY=0.5;exitDx=0;exitDy=0;exitPerimeter=0;" edge="1" parent="WIyWlLk6GJQsqaUBKTNV-1" source="pgVZvfsafe47XiwOtJ4V-1" target="pgVZvfsafe47XiwOtJ4V-2">
          <mxGeometry relative="1" as="geometry" />
        </mxCell>
        <mxCell id="pgVZvfsafe47XiwOtJ4V-1" value="Admin" style="shape=umlActor;verticalLabelPosition=bottom;verticalAlign=top;html=1;outlineConnect=0;" vertex="1" parent="WIyWlLk6GJQsqaUBKTNV-1">
          <mxGeometry x="230" y="175" width="30" height="60" as="geometry" />
        </mxCell>
        <mxCell id="pgVZvfsafe47XiwOtJ4V-2" value="Melakukan&amp;nbsp;&lt;div&gt;Login&lt;/div&gt;" style="ellipse;whiteSpace=wrap;html=1;" vertex="1" parent="WIyWlLk6GJQsqaUBKTNV-1">
          <mxGeometry x="352.5" y="97" width="95" height="40" as="geometry" />
        </mxCell>
        <mxCell id="pgVZvfsafe47XiwOtJ4V-4" value="Sistem" style="text;html=1;align=center;verticalAlign=middle;resizable=0;points=[];autosize=1;strokeColor=none;fillColor=none;" vertex="1" parent="WIyWlLk6GJQsqaUBKTNV-1">
          <mxGeometry x="300" y="70" width="60" height="30" as="geometry" />
        </mxCell>
        <mxCell id="pgVZvfsafe47XiwOtJ4V-5" value="Mengelola&lt;div&gt;SPK&lt;/div&gt;" style="ellipse;whiteSpace=wrap;html=1;" vertex="1" parent="WIyWlLk6GJQsqaUBKTNV-1">
          <mxGeometry x="352.5" y="147" width="95" height="40" as="geometry" />
        </mxCell>
        <mxCell id="pgVZvfsafe47XiwOtJ4V-6" value="Mengelola&lt;div&gt;Teknisi&lt;/div&gt;" style="ellipse;whiteSpace=wrap;html=1;" vertex="1" parent="WIyWlLk6GJQsqaUBKTNV-1">
          <mxGeometry x="352.5" y="202" width="95" height="40" as="geometry" />
        </mxCell>
        <mxCell id="pgVZvfsafe47XiwOtJ4V-7" value="Mengelola&lt;div&gt;Rules&lt;/div&gt;" style="ellipse;whiteSpace=wrap;html=1;" vertex="1" parent="WIyWlLk6GJQsqaUBKTNV-1">
          <mxGeometry x="352.5" y="257" width="95" height="40" as="geometry" />
        </mxCell>
        <mxCell id="pgVZvfsafe47XiwOtJ4V-8" value="Mencetak&lt;div&gt;Laporan&lt;/div&gt;" style="ellipse;whiteSpace=wrap;html=1;" vertex="1" parent="WIyWlLk6GJQsqaUBKTNV-1">
          <mxGeometry x="352.5" y="307" width="95" height="40" as="geometry" />
        </mxCell>
        <mxCell id="pgVZvfsafe47XiwOtJ4V-10" style="rounded=0;orthogonalLoop=1;jettySize=auto;html=1;entryX=0;entryY=0.5;entryDx=0;entryDy=0;endArrow=none;endFill=0;exitX=0.5;exitY=0.5;exitDx=0;exitDy=0;exitPerimeter=0;" edge="1" parent="WIyWlLk6GJQsqaUBKTNV-1" source="pgVZvfsafe47XiwOtJ4V-1" target="pgVZvfsafe47XiwOtJ4V-5">
          <mxGeometry relative="1" as="geometry">
            <mxPoint x="190" y="209" as="sourcePoint" />
            <mxPoint x="395" y="120" as="targetPoint" />
          </mxGeometry>
        </mxCell>
        <mxCell id="pgVZvfsafe47XiwOtJ4V-11" style="rounded=0;orthogonalLoop=1;jettySize=auto;html=1;entryX=0;entryY=0.5;entryDx=0;entryDy=0;endArrow=none;endFill=0;exitX=0.5;exitY=0.5;exitDx=0;exitDy=0;exitPerimeter=0;" edge="1" parent="WIyWlLk6GJQsqaUBKTNV-1" source="pgVZvfsafe47XiwOtJ4V-1" target="pgVZvfsafe47XiwOtJ4V-6">
          <mxGeometry relative="1" as="geometry">
            <mxPoint x="200" y="219" as="sourcePoint" />
            <mxPoint x="395" y="170" as="targetPoint" />
          </mxGeometry>
        </mxCell>
        <mxCell id="pgVZvfsafe47XiwOtJ4V-12" style="rounded=0;orthogonalLoop=1;jettySize=auto;html=1;entryX=0;entryY=0.5;entryDx=0;entryDy=0;endArrow=none;endFill=0;exitX=0.5;exitY=0.5;exitDx=0;exitDy=0;exitPerimeter=0;" edge="1" parent="WIyWlLk6GJQsqaUBKTNV-1" source="pgVZvfsafe47XiwOtJ4V-1" target="pgVZvfsafe47XiwOtJ4V-7">
          <mxGeometry relative="1" as="geometry">
            <mxPoint x="210" y="229" as="sourcePoint" />
            <mxPoint x="395" y="225" as="targetPoint" />
          </mxGeometry>
        </mxCell>
        <mxCell id="pgVZvfsafe47XiwOtJ4V-13" style="rounded=0;orthogonalLoop=1;jettySize=auto;html=1;entryX=0;entryY=0.5;entryDx=0;entryDy=0;endArrow=none;endFill=0;exitX=0.5;exitY=0.5;exitDx=0;exitDy=0;exitPerimeter=0;" edge="1" parent="WIyWlLk6GJQsqaUBKTNV-1" source="pgVZvfsafe47XiwOtJ4V-1" target="pgVZvfsafe47XiwOtJ4V-8">
          <mxGeometry relative="1" as="geometry">
            <mxPoint x="220" y="239" as="sourcePoint" />
            <mxPoint x="395" y="280" as="targetPoint" />
          </mxGeometry>
        </mxCell>
      </root>
    </mxGraphModel>
  </diagram>
</mxfile>
